<?xml version="1.0" standalone="no"?>
<!DOCTYPE svg PUBLIC "-//W3C//DTD SVG 20010904//EN"
 "http://www.w3.org/TR/2001/REC-SVG-20010904/DTD/svg10.dtd">
<svg version="1.0" xmlns="http://www.w3.org/2000/svg"
 width="108.000000pt" height="108.000000pt" viewBox="0 0 108.000000 108.000000"
 preserveAspectRatio="xMidYMid meet">

<g transform="translate(0.000000,108.000000) scale(0.100000,-0.100000)"
fill="#000000" stroke="none">
<path d="M411 1064 c-195 -52 -346 -204 -396 -399 -39 -155 1 -333 104 -463
39 -49 152 -142 172 -142 5 0 9 156 9 360 l0 360 30 0 c20 0 30 -5 30 -15 0
-12 18 -15 100 -15 76 0 101 -3 107 -15 6 -11 33 -15 108 -17 l100 -3 0 -160
0 -160 -128 -3 c-107 -2 -128 0 -133 13 -5 12 -23 15 -80 15 l-74 0 0 -194 0
-194 33 -12 c17 -6 70 -14 117 -17 307 -19 570 229 570 537 0 295 -249 542
-545 539 -38 0 -94 -7 -124 -15z"/>
<path d="M360 585 l0 -105 75 0 75 0 0 105 0 105 -75 0 -75 0 0 -105z"/>
<path d="M570 555 l0 -105 75 0 75 0 0 105 0 105 -75 0 -75 0 0 -105z"/>
</g>
</svg>
